<svg xmlns="http://www.w3.org/2000/svg" version="1.1" xmlns:xlink="http://www.w3.org/1999/xlink" xmlns:svgjs="http://svgjs.dev/svgjs" width="1000" height="333" viewBox="0 0 1000 333"><g transform="matrix(1,0,0,1,-0.6060606060606801,0.16358516166968684)"><svg viewBox="0 0 396 132" data-background-color="#ffffff" preserveAspectRatio="xMidYMid meet" height="333" width="1000" xmlns="http://www.w3.org/2000/svg" xmlns:xlink="http://www.w3.org/1999/xlink"><g id="tight-bounds" transform="matrix(1,0,0,1,0.24000000000003752,-0.06484456858979115)"><svg viewBox="0 0 395.5199999999999 132.12968913717955" height="132.12968913717955" width="395.5199999999999"><g><svg viewBox="0 0 397.4975999999999 132.79033758286545" height="132.12968913717955" width="395.5199999999999"><g><rect width="397.4975999999999" height="4.067192655416703" x="0" y="72.97573200433143" fill="#97978d" opacity="1" stroke-width="0" stroke="transparent" fill-opacity="1" class="rect-r$-0" data-fill-palette-color="secondary" rx="1%" id="r$-0" data-palette-color="#97978d"></rect></g><g transform="matrix(1,0,0,1,0.9887999999999693,87.69002585193846)"><svg viewBox="0 0 395.52 45.10031173092699" height="45.10031173092699" width="395.52"><g id="textblocktransform"><svg viewBox="0 0 395.52 45.10031173092699" height="45.10031173092699" width="395.52" id="textblock"><g><svg viewBox="0 0 395.52 45.10031173092699" height="45.10031173092699" width="395.52"><g transform="matrix(1,0,0,1,0,0)"><svg width="395.52" viewBox="3.85 -34.35 304.71999999999997 34.75" height="45.10031173092699" data-palette-color="#6b7280"><path d="M20.6-18.2L20.6-14.65 7.9-14.65 7.9 0 3.85 0 3.85-33.7 22.35-33.7 22.35-30.15 7.9-30.15 7.9-18.2 20.6-18.2ZM35.35-14.2L35.35-14.2 34.7-12.3 46.65-12.3 46-14.25 40.75-30.45Q40.15-28.3 35.35-14.2ZM33.55-8.85L30.55 0 26.2 0 37.95-33.7 43.55-33.7 55.1 0 50.75 0 47.8-8.85 33.55-8.85ZM86.89-33.7L75.14 0 70.05 0 58.64-33.7 62.99-33.7 67.39-20.35 72.64-3.65Q74.59-9.95 78.05-20.35L78.05-20.35 82.55-33.7 86.89-33.7ZM121.34-17L121.34-17Q121.34-9.05 117.27-4.33 113.19 0.4 106.24 0.4L106.24 0.4Q99.39 0.4 95.24-4.35 91.09-9.1 91.09-17L91.09-17Q91.09-24.95 95.17-29.65 99.24-34.35 106.19-34.35L106.19-34.35Q113.29-34.35 117.32-29.68 121.34-25 121.34-17ZM95.34-17L95.34-17Q95.34-10.75 98.32-7.1 101.29-3.45 106.24-3.45L106.24-3.45Q111.39-3.45 114.22-7.05 117.04-10.65 117.04-17 117.04-23.35 114.19-26.95 111.34-30.55 106.19-30.55L106.19-30.55Q101.09-30.55 98.22-26.93 95.34-23.3 95.34-17ZM162.99-5.95L162.99-1.7Q159.89 0.4 154.49 0.4L154.49 0.4Q146.89 0.4 142.14-4.28 137.39-8.95 137.39-17L137.39-17Q137.39-24.6 142.21-29.38 147.04-34.15 154.34-34.15L154.34-34.15Q159.59-34.15 162.89-32.35L162.89-32.35 162.89-28.2Q160.69-29.35 158.94-29.85 157.19-30.35 154.34-30.35L154.34-30.35Q148.89-30.35 145.26-26.65 141.64-22.95 141.64-17L141.64-17Q141.64-10.8 145.24-7.1 148.84-3.4 154.79-3.4L154.79-3.4Q159.59-3.4 162.99-5.95L162.99-5.95ZM197.74-17L197.74-17Q197.74-9.05 193.66-4.33 189.59 0.4 182.64 0.4L182.64 0.4Q175.78 0.4 171.64-4.35 167.49-9.1 167.49-17L167.49-17Q167.49-24.95 171.56-29.65 175.64-34.35 182.59-34.35L182.59-34.35Q189.69-34.35 193.71-29.68 197.74-25 197.74-17ZM171.74-17L171.74-17Q171.74-10.75 174.71-7.1 177.69-3.45 182.64-3.45L182.64-3.45Q187.79-3.45 190.61-7.05 193.44-10.65 193.44-17 193.44-23.35 190.59-26.95 187.74-30.55 182.59-30.55L182.59-30.55Q177.49-30.55 174.61-26.93 171.74-23.3 171.74-17ZM228.53-33.7L228.53-12.8Q228.53-6.3 225.26-2.95 221.98 0.4 216.13 0.4L216.13 0.4Q210.38 0.4 207.13-2.88 203.88-6.15 203.88-12.4L203.88-12.4 203.88-33.7 207.93-33.7 207.93-12.45Q207.93-7.8 210.16-5.6 212.38-3.4 216.13-3.4L216.13-3.4Q224.48-3.4 224.48-12.7L224.48-12.7 224.48-33.7 228.53-33.7ZM244.88-30.2L244.88-30.2 240.23-30.2 240.23-16.75 245.33-16.75Q248.78-16.75 250.61-18.63 252.43-20.5 252.43-23.45L252.43-23.45Q252.43-30.2 244.88-30.2ZM245.48-13.3L245.08-13.3 240.23-13.3 240.23 0 236.18 0 236.18-33.7 244.63-33.7Q250.48-33.7 253.51-30.95 256.53-28.2 256.53-23.35L256.53-23.35Q256.43-19.85 254.68-17.4 252.93-14.95 249.73-13.95L249.73-13.95 258.58 0 253.73 0 245.48-13.3ZM283.08-8.95L283.08-8.95Q283.08-4.5 280.03-2.08 276.98 0.35 272.18 0.35L272.18 0.35Q266.88 0.35 263.18-1.8L263.18-1.8 263.18-6.15Q266.83-3.4 272.08-3.4L272.08-3.4Q275.23-3.4 277.03-4.8 278.83-6.2 278.83-8.85L278.83-8.85Q278.83-9.95 278.4-10.83 277.98-11.7 277-12.43 276.03-13.15 275.15-13.63 274.28-14.1 272.78-14.8L272.78-14.8Q272.48-14.95 271.88-15.2L271.88-15.2Q269.73-16.15 268.6-16.75 267.48-17.35 265.95-18.53 264.43-19.7 263.73-21.25 263.03-22.8 263.03-24.85L263.03-24.85Q263.03-29.15 266.1-31.58 269.18-34 273.83-34L273.83-34Q278.18-34 281.23-32.45L281.23-32.45 281.23-28.2Q278.18-30.2 273.93-30.2L273.93-30.2Q270.88-30.2 269.08-28.78 267.28-27.35 267.28-25.05L267.28-25.05Q267.28-23.85 267.75-22.9 268.23-21.95 269.43-21.13 270.63-20.3 271.48-19.88 272.33-19.45 274.13-18.65L274.13-18.65Q275.83-17.9 276.73-17.48 277.63-17.05 279.05-16.13 280.48-15.2 281.2-14.33 281.93-13.45 282.5-12.03 283.08-10.6 283.08-8.95ZM308.57-3.55L308.57 0 289.78 0 289.78-33.7 308.32-33.7 308.32-30.15 293.82-30.15 293.82-18.6 306.63-18.6 306.63-15.05 293.82-15.05 293.82-3.55 308.57-3.55Z" opacity="1" transform="matrix(1,0,0,1,0,0)" fill="#6b7280" class="wordmark-text-0" data-fill-palette-color="primary" id="text-0"></path></svg></g></svg></g></svg></g></svg></g><g transform="matrix(1,0,0,1,159.58601785985687,0)"><svg viewBox="0 0 78.3255642802862 62.32863081214111" height="62.32863081214111" width="78.3255642802862"><g><svg xmlns="http://www.w3.org/2000/svg" xmlns:xlink="http://www.w3.org/1999/xlink" version="1.1" x="8" y="0" viewBox="0.35833249999999595 0.3587183000000067 89.28326340000001 89.2876563" enable-background="new 0 0 90 90" xml:space="preserve" height="62.32863081214111" width="62.3255642802862" class="icon-icon-0" data-fill-palette-color="accent" id="icon-0"><polygon points="57.928,58.169 57.875,76.027 45.397,63.548 45.397,45.639 " fill="#97978d" data-fill-palette-color="accent"></polygon><polygon points="76.027,57.875 58.475,57.927 45.826,45.279 63.432,45.279 " fill="#97978d" data-fill-palette-color="accent"></polygon><polygon points="76.027,32.125 63.432,44.721 45.707,44.721 58.355,32.073 " fill="#97978d" data-fill-palette-color="accent"></polygon><polygon points="44.838,45.59 44.838,63.314 32.125,76.027 32.074,58.355 " fill="#97978d" data-fill-palette-color="accent"></polygon><polygon points="57.928,31.712 45.397,44.243 45.397,26.452 57.875,13.974 " fill="#97978d" data-fill-palette-color="accent"></polygon><polygon points="44.838,26.687 44.838,44.291 32.074,31.526 32.125,13.974 " fill="#97978d" data-fill-palette-color="accent"></polygon><polygon points="44.479,44.721 26.569,44.721 13.974,32.125 31.832,32.073 " fill="#97978d" data-fill-palette-color="accent"></polygon><polygon points="44.36,45.279 31.712,57.927 13.974,57.875 26.569,45.279 " fill="#97978d" data-fill-palette-color="accent"></polygon><rect x="58.48" y="58.48" width="18.049" height="18.049" fill="#97978d" data-fill-palette-color="accent"></rect><polygon points="76.527,13.474 76.527,31.516 58.914,31.516 58.912,31.518 58.484,31.516 58.484,13.474 " fill="#97978d" data-fill-palette-color="accent"></polygon><polygon points="31.518,30.971 31.516,31.516 13.474,31.516 13.474,13.474 31.516,13.474 31.516,30.968 " fill="#97978d" data-fill-palette-color="accent"></polygon><rect x="13.471" y="58.48" width="18.05" height="18.049" fill="#97978d" data-fill-palette-color="accent"></rect><rect x="67.864" y="35.981" transform="matrix(0.7071 -0.7071 0.7071 0.7071 -9.3022 67.5465)" width="18.042" height="18.042" fill="#97978d" data-fill-palette-color="accent"></rect><rect x="35.979" y="4.094" transform="matrix(0.7071 -0.7071 0.7071 0.7071 3.9068 35.6621)" width="18.042" height="18.042" fill="#97978d" data-fill-palette-color="accent"></rect><rect x="4.095" y="35.98" transform="matrix(0.7071 -0.7071 0.7071 0.7071 -27.9787 22.4536)" width="18.041" height="18.041" fill="#97978d" data-fill-palette-color="accent"></rect><rect x="35.98" y="67.865" transform="matrix(0.7071 -0.7071 0.7071 0.7071 -41.1877 54.3437)" width="18.04" height="18.041" fill="#97978d" data-fill-palette-color="accent"></rect></svg></g></svg></g><g><rect width="83.05289785985687" height="4.067192655416703" y="57.2614381567244" x="237.91158214014303" fill="#97978d" data-fill-palette-color="secondary"></rect><rect width="83.05289785985687" height="4.067192655416703" y="57.2614381567244" x="76.53311999999998" fill="#97978d" data-fill-palette-color="secondary"></rect></g></svg></g><defs></defs></svg><rect width="395.5199999999999" height="132.12968913717955" fill="none" stroke="none" visibility="hidden"></rect></g></svg></g></svg>